<svg id="Cloud_Backup_logo" xmlns="http://www.w3.org/2000/svg" width="55" height="55" viewBox="0 0 55 55">
  <g id="NetApp___Spot_Products_logos" data-name="NetApp_&amp;_Spot_Products_logos">
    <g id="header_cloud_backup">
      <circle id="Oval-8" cx="27.5" cy="27.5" r="27.5" fill="#01c3ff"/>
      <g id="Group-3" transform="translate(12.815 15.4)">
        <path id="Shape" d="M13.277.48a7.357,7.357,0,0,0-7.2,6.1,6.378,6.378,0,0,0,.56,12.725H9.625a.738.738,0,0,0,.4-.6c.015-.371-.271-.746-.4-.745H6.637a5.044,5.044,0,0,1,0-10.087A.667.667,0,0,0,7.3,7.268a6.032,6.032,0,0,1,5.977-5.443,5.6,5.6,0,0,1,4.171,1.807.658.658,0,0,0,.716.158,5.3,5.3,0,0,1,1.754-.284,4.679,4.679,0,0,1,4.648,4.109A.671.671,0,0,0,25,8.172a5.007,5.007,0,0,1,3.217,4.749,4.987,4.987,0,0,1-4.98,5.044H20.617c-.127,0-.42.389-.412.745a.688.688,0,0,0,.412.6h2.621a6.391,6.391,0,0,0,2.584-12.2,6.021,6.021,0,0,0-5.9-4.949,6.633,6.633,0,0,0-1.826.273A6.941,6.941,0,0,0,13.277.48Z" transform="translate(-0.328 -0.48)" fill="#fff" stroke="#fff" stroke-width="1.2"/>
        <path id="Combined-Shape" d="M45.689-99.855l3.818-3.174a.607.607,0,0,0,.079-.855.607.607,0,0,0-.467-.219h-7.56a.607.607,0,0,0-.607.607.607.607,0,0,0,.214.463l3.742,3.174A.607.607,0,0,0,45.689-99.855Z" transform="translate(-30.607 126.103)" fill="#fff" fill-rule="evenodd"/>
        <path id="Rectangle-16" d="M54.542-81.291H55.67a.646.646,0,0,0,.646-.646V-90.47a1.21,1.21,0,0,0-1.21-1.21,1.21,1.21,0,0,0-1.21,1.21v8.533A.646.646,0,0,0,54.542-81.291Z" transform="translate(-40.256 104.513)" fill="#fff" fill-rule="evenodd"/>
      </g>
    </g>
  </g>
</svg>
