<svg id="CVO_logo" xmlns="http://www.w3.org/2000/svg" width="55" height="55" viewBox="0 0 55 55">
  <g id="NetApp___Spot_Products_logos" data-name="NetApp_&amp;_Spot_Products_logos">
    <g id="logo_CVO">
      <circle id="Oval-8" cx="27.5" cy="27.5" r="27.5" fill="#8e52ff"/>
      <path id="Shape" d="M66.97,72a6.882,6.882,0,0,0-6.736,5.71,5.966,5.966,0,0,0,.524,11.9H74.379V88.535l-13.621-.18a4.718,4.718,0,0,1,0-9.436.624.624,0,0,0,.621-.57,5.642,5.642,0,0,1,5.59-5.091,5.236,5.236,0,0,1,3.9,1.691.616.616,0,0,0,.67.147,4.954,4.954,0,0,1,1.64-.265,4.377,4.377,0,0,1,4.348,3.843.628.628,0,0,0,.408.521,4.745,4.745,0,0,1-1.65,9.16l-1.908.18v1.078h1.908A5.978,5.978,0,0,0,78.7,78.2a5.631,5.631,0,0,0-5.522-4.629,6.2,6.2,0,0,0-1.708.256A6.493,6.493,0,0,0,66.97,72Z" transform="translate(-41.107 -53.25)" fill="#fff" stroke="#fff" stroke-width="1.2"/>
	  <text letter-spacing="1px" x="50%" y="21%" font-size="1em" font-family="Arial, Helvetica, sans-serif" text-anchor="middle" stroke="#00cc00" stroke-width="1px" dy=".25em">HA</text>

    </g>
  </g>
</svg>
