<?xml version="1.0" encoding="utf-8"?>
<!-- Generator: Adobe Illustrator 26.0.2, SVG Export Plug-In . SVG Version: 6.00 Build 0)  -->
<svg version="1.1" id="Layer_3" xmlns="http://www.w3.org/2000/svg" xmlns:xlink="http://www.w3.org/1999/xlink" x="0px" y="0px"
	 viewBox="0 0 64 64" style="enable-background:new 0 0 64 64;" xml:space="preserve">
<g>
	<rect x="7.859" y="8" style="fill:#A1CDF9;" width="48" height="48"/>
	<path style="fill:#C7E2FB;" d="M55.859,8h-48v10.5c0,20.711,16.118,37.5,36,37.5h12V8z"/>
	<circle style="fill:#EBF7FE;" cx="37.359" cy="28.5" r="13.5"/>
	<circle style="fill:#4472B0;" cx="16.859" cy="17" r="3"/>
	<path style="fill:#4472B0;" d="M46.859,20h-20c-1.657,0-3-1.343-3-3v0c0-1.657,1.343-3,3-3h20c1.657,0,3,1.343,3,3v0
		C49.859,18.657,48.515,20,46.859,20z"/>
	<path style="fill:#698EC0;" d="M16.859,14c-0.761,0-1.448,0.292-1.977,0.759C15.004,17.121,16.728,19,18.859,19
		c0.084,0,0.162-0.022,0.244-0.028c0.465-0.528,0.756-1.213,0.756-1.972C19.859,15.343,18.516,14,16.859,14z"/>
	<path style="fill:#698EC0;" d="M49.859,17c0-1.657-1.343-3-3-3h-20c-0.183,0-0.36,0.023-0.534,0.054
		C27.857,17.475,33.103,20,39.359,20h7.5C48.516,20,49.859,18.657,49.859,17z"/>
	<circle style="fill:#4472B0;" cx="16.859" cy="27" r="3"/>
	<path style="fill:#4472B0;" d="M46.859,30h-20c-1.657,0-3-1.343-3-3v0c0-1.657,1.343-3,3-3h20c1.657,0,3,1.343,3,3v0
		C49.859,28.657,48.515,30,46.859,30z"/>
	<path style="fill:#698EC0;" d="M16.859,24c-0.761,0-1.448,0.292-1.977,0.759C15.004,27.121,16.728,29,18.859,29
		c0.084,0,0.162-0.022,0.244-0.028c0.465-0.528,0.756-1.213,0.756-1.972C19.859,25.343,18.516,24,16.859,24z"/>
	<path style="fill:#698EC0;" d="M49.859,27c0-1.657-1.343-3-3-3h-20c-0.183,0-0.36,0.023-0.534,0.054
		C27.857,27.475,33.103,30,39.359,30h7.5C48.516,30,49.859,28.657,49.859,27z"/>
	<circle style="fill:#4472B0;" cx="16.859" cy="37" r="3"/>
	<path style="fill:#4472B0;" d="M46.859,40h-20c-1.657,0-3-1.343-3-3v0c0-1.657,1.343-3,3-3h20c1.657,0,3,1.343,3,3v0
		C49.859,38.657,48.515,40,46.859,40z"/>
	<path style="fill:#698EC0;" d="M16.859,34c-0.761,0-1.448,0.292-1.977,0.759C15.004,37.121,16.728,39,18.859,39
		c0.084,0,0.162-0.022,0.244-0.028c0.465-0.528,0.756-1.213,0.756-1.972C19.859,35.343,18.516,34,16.859,34z"/>
	<path style="fill:#698EC0;" d="M49.859,37c0-1.657-1.343-3-3-3h-20c-0.183,0-0.36,0.023-0.534,0.054
		C27.857,37.475,33.103,40,39.359,40h7.5C48.516,40,49.859,38.657,49.859,37z"/>
	<circle style="fill:#4472B0;" cx="16.859" cy="47" r="3"/>
	<path style="fill:#4472B0;" d="M46.859,50h-20c-1.657,0-3-1.343-3-3v0c0-1.657,1.343-3,3-3h20c1.657,0,3,1.343,3,3v0
		C49.859,48.657,48.515,50,46.859,50z"/>
	<path style="fill:#698EC0;" d="M16.859,44c-0.761,0-1.448,0.292-1.977,0.759C15.004,47.121,16.728,49,18.859,49
		c0.084,0,0.162-0.022,0.244-0.028c0.465-0.528,0.756-1.213,0.756-1.972C19.859,45.343,18.516,44,16.859,44z"/>
	<path style="fill:#698EC0;" d="M49.859,47c0-1.657-1.343-3-3-3h-20c-0.183,0-0.36,0.023-0.534,0.054
		C27.857,47.475,33.103,50,39.359,50h7.5C48.516,50,49.859,48.657,49.859,47z"/>
	<g>
		<rect x="1" y="28" width="2" height="2"/>
		<rect x="1" y="24" width="2" height="2"/>
		<rect x="1" y="20" width="2" height="2"/>
		<rect x="1" y="16" width="2" height="2"/>
		<rect x="1" y="12" width="2" height="2"/>
		<rect x="1" y="8" width="2" height="2"/>
		<rect x="28" y="1" width="2" height="2"/>
		<rect x="24" y="1" width="2" height="2"/>
		<rect x="20" y="1" width="2" height="2"/>
		<rect x="16" y="1" width="2" height="2"/>
		<rect x="12" y="1" width="2" height="2"/>
		<rect x="8" y="1" width="2" height="2"/>
		<path d="M3,3h2.999V1H2C1.448,1,1,1.447,1,2v4h2V3z"/>
		<rect x="34" y="61" width="2" height="2"/>
		<rect x="38" y="61" width="2" height="2"/>
		<rect x="42" y="61" width="2" height="2"/>
		<rect x="46" y="61" width="2" height="2"/>
		<rect x="50" y="61" width="2" height="2"/>
		<rect x="54" y="61" width="2" height="2"/>
		<rect x="61" y="33.998" width="2" height="2"/>
		<rect x="61" y="37.998" width="2" height="2"/>
		<rect x="61" y="41.998" width="2" height="2"/>
		<rect x="61" y="45.998" width="2" height="2"/>
		<rect x="61" y="49.998" width="2" height="2"/>
		<rect x="61" y="53.998" width="2" height="2"/>
		<path d="M61,61h-3v2h4c0.552,0,1-0.447,1-1v-4h-2V61z"/>
		<path d="M62,1H32v2h29v29h2V2C63,1.447,62.552,1,62,1z"/>
		<path d="M3,32H1v30c0,0.553,0.448,1,1,1h30v-2H3V32z"/>
		<path d="M56,7H8C7.448,7,7,7.447,7,8v48c0,0.553,0.448,1,1,1h48c0.552,0,1-0.447,1-1V8C57,7.447,56.552,7,56,7z M55,55H9V9h46V55z
			"/>
		<path d="M17,21c2.206,0,4-1.794,4-4s-1.794-4-4-4s-4,1.794-4,4S14.794,21,17,21z M17,15c1.103,0,2,0.897,2,2s-0.897,2-2,2
			s-2-0.897-2-2S15.897,15,17,15z"/>
		<path d="M27,21h20c2.206,0,4-1.794,4-4s-1.794-4-4-4H27c-2.206,0-4,1.794-4,4S24.794,21,27,21z M27,15h20c1.103,0,2,0.897,2,2
			s-0.897,2-2,2H27c-1.103,0-2-0.897-2-2S25.897,15,27,15z"/>
		<path d="M17,31c2.206,0,4-1.794,4-4s-1.794-4-4-4s-4,1.794-4,4S14.794,31,17,31z M17,25c1.103,0,2,0.897,2,2s-0.897,2-2,2
			s-2-0.897-2-2S15.897,25,17,25z"/>
		<path d="M27,31h20c2.206,0,4-1.794,4-4s-1.794-4-4-4H27c-2.206,0-4,1.794-4,4S24.794,31,27,31z M27,25h20c1.103,0,2,0.897,2,2
			s-0.897,2-2,2H27c-1.103,0-2-0.897-2-2S25.897,25,27,25z"/>
		<path d="M17,41c2.206,0,4-1.794,4-4s-1.794-4-4-4s-4,1.794-4,4S14.794,41,17,41z M17,35c1.103,0,2,0.897,2,2s-0.897,2-2,2
			s-2-0.897-2-2S15.897,35,17,35z"/>
		<path d="M27,41h20c2.206,0,4-1.794,4-4s-1.794-4-4-4H27c-2.206,0-4,1.794-4,4S24.794,41,27,41z M27,35h20c1.103,0,2,0.897,2,2
			s-0.897,2-2,2H27c-1.103,0-2-0.897-2-2S25.897,35,27,35z"/>
		<path d="M17,51c2.206,0,4-1.794,4-4s-1.794-4-4-4s-4,1.794-4,4S14.794,51,17,51z M17,45c1.103,0,2,0.897,2,2s-0.897,2-2,2
			s-2-0.897-2-2S15.897,45,17,45z"/>
		<path d="M27,51h20c2.206,0,4-1.794,4-4s-1.794-4-4-4H27c-2.206,0-4,1.794-4,4S24.794,51,27,51z M27,45h20c1.103,0,2,0.897,2,2
			s-0.897,2-2,2H27c-1.103,0-2-0.897-2-2S25.897,45,27,45z"/>
	</g>
</g>
</svg>
