<svg class="svg-icon" style="width: 1em; height: 1em;vertical-align: middle;fill: currentColor;overflow: hidden;" viewBox="0 0 1024 1024" version="1.1" xmlns="http://www.w3.org/2000/svg"><path d="M505.376139 569.56302 74.40971 361.510544c-6.189979-2.473331-9.28855-6.768147-9.28855-12.998035 0-6.198166 3.098571-10.494005 9.28855-13.006222l430.966429-208.052476c3.717671-1.197268 7.426133-1.197268 11.143805 0l430.966429 208.052476c6.189979 2.512217 9.289574 6.808056 9.289574 13.006222 0 6.229888-3.098571 10.525728-9.289574 12.998035L516.519943 569.56302c-1.236154 1.236154-3.098571 1.862417-5.571902 1.862417C508.466524 571.425438 506.612293 570.799174 505.376139 569.56302zM505.376139 718.172663 74.40971 510.119163c-6.189979-2.473331-9.28855-6.769171-9.28855-12.998035 0-6.198166 3.098571-10.494005 9.28855-13.006222l91.020016-44.582381c8.670473-4.913916 15.479553-2.480494 20.432355 7.426133 3.717671 7.43432 1.24434 13.664208-7.426133 18.578124l-65.015759 31.584346 397.527852 191.329607L908.47487 497.121128l-65.015759-31.584346c-8.670473-4.913916-11.143805-11.143805-7.426133-18.578124 4.953825-9.907651 11.761881-12.340049 20.432355-7.426133l91.020016 44.582381c6.189979 2.512217 9.289574 6.808056 9.289574 13.006222 0 6.229888-3.098571 10.525728-9.289574 12.998035L516.519943 718.172663c-1.236154 1.236154-3.098571 1.862417-5.571902 1.862417C508.466524 720.03508 506.612293 719.408817 505.376139 718.172663zM505.376139 866.781282 74.40971 658.728806c-6.189979-2.473331-9.28855-6.769171-9.28855-12.998035 0-6.198166 3.098571-10.494005 9.28855-13.006222l91.020016-44.582381c8.670473-4.913916 15.479553-2.480494 20.432355 7.426133 3.717671 7.43432 1.24434 13.664208-7.426133 18.578124l-65.015759 31.584346 397.527852 191.329607L908.47487 645.730771l-65.015759-31.584346c-8.670473-4.913916-11.143805-11.143805-7.426133-18.578124 4.953825-9.907651 11.761881-12.340049 20.432355-7.426133l91.020016 44.582381c6.189979 2.512217 9.289574 6.808056 9.289574 13.006222 0 6.229888-3.098571 10.525728-9.289574 12.998035L516.519943 866.781282c-1.236154 1.236154-3.098571 1.862417-5.571902 1.862417C508.466524 868.6437 506.612293 868.017436 505.376139 866.781282zM113.420189 348.512509l397.527852 191.329607L908.47487 348.512509 510.948041 157.174716 113.420189 348.512509z"  /></svg>